<svg data-v-423bf9ae="" xmlns="http://www.w3.org/2000/svg" viewBox="0 0 307.1590909090909 163" class="iconAbove"><!----><!----><defs data-v-423bf9ae=""><linearGradient data-v-423bf9ae="" gradientTransform="rotate(25)" id="2e76d111-4087-404e-a4be-a195c9f7ec8b" x1="0%" y1="0%" x2="100%" y2="0%"><stop data-v-423bf9ae="" offset="0%" style="stop-color: rgb(22, 41, 202); stop-opacity: 1;"></stop><stop data-v-423bf9ae="" offset="100%" style="stop-color: rgb(66, 93, 143); stop-opacity: 1;"></stop></linearGradient></defs><g data-v-423bf9ae="" id="f983f62f-c5be-4764-8956-16b3cdcfdb18" fill="url(#2e76d111-4087-404e-a4be-a195c9f7ec8b)" transform="matrix(4.363636493682861,0,0,4.363636493682861,-2.4375059604644775,103.44318389892578)"><path d="M5.78 10.50L7.84 10.50L7.98 9.86L7.03 9.62L7.03 0L4.55 0.34L4.62 0.95L5.78 1.18L5.78 3.65C5.26 3.33 4.69 3.18 4.13 3.18C2.32 3.18 0.56 4.69 0.56 7.10C0.56 9.23 2.04 10.61 3.60 10.61C4.48 10.61 5.15 10.28 5.78 9.70ZM3.86 9.69C2.51 9.69 1.96 8.37 1.96 6.80C1.96 5.12 3.05 3.96 4.23 3.96C4.75 3.96 5.29 4.19 5.78 4.69L5.78 8.85C5.21 9.35 4.47 9.69 3.86 9.69ZM15.99 5.67C15.95 3.88 15.20 3.09 13.86 3.09C13.09 3.09 12.07 3.50 11.44 4.27L11.44 3.12L8.96 3.46L9.03 4.07L10.19 4.30L10.19 9.66L8.97 10.08L8.97 10.50L12.36 10.50L12.50 9.83L11.44 9.63L11.44 4.96C11.80 4.52 12.64 4.24 13.38 4.24C14.28 4.24 14.73 4.55 14.73 5.95L14.73 9.66L13.65 10.08L13.65 10.50L16.97 10.50L17.11 9.87L15.99 9.63ZM17.98 10.16C18.58 10.43 19.49 10.64 20.40 10.64C21.81 10.64 23.17 10.12 23.17 8.47C23.17 6.22 19.42 6.59 19.42 4.90C19.42 4.12 20.06 3.89 20.78 3.89C21.22 3.89 21.42 3.93 21.74 4.03L22.12 5.46L22.85 5.33L22.85 3.58C22.57 3.30 21.84 3.12 21.04 3.12C19.68 3.12 18.12 3.65 18.12 5.11C18.12 7.46 21.91 7.06 21.85 8.68C21.84 9.52 21.25 9.87 20.41 9.87C19.87 9.87 19.57 9.76 19.08 9.55L18.70 8.16L17.98 8.29ZM24.74 9.73C24.96 10.16 25.30 10.50 25.73 10.72C26.17 10.49 26.52 10.14 26.77 9.70C26.53 9.27 26.21 8.95 25.77 8.71C25.33 8.95 24.98 9.30 24.74 9.73ZM30.73 3.12L28.27 3.46L28.34 4.03L29.47 4.24L29.47 9.66L28.24 10.08L28.24 10.50L31.64 10.50L31.78 9.83L30.73 9.63ZM29.01 1.08C29.22 1.47 29.55 1.81 29.95 2.02C30.35 1.78 30.69 1.46 30.93 1.05C30.72 0.64 30.39 0.32 29.99 0.11C29.57 0.35 29.25 0.67 29.01 1.08ZM39.65 5.67C39.61 3.88 38.86 3.09 37.52 3.09C36.75 3.09 35.73 3.50 35.10 4.27L35.10 3.12L32.62 3.46L32.69 4.07L33.85 4.30L33.85 9.66L32.63 10.08L32.63 10.50L36.02 10.50L36.16 9.83L35.10 9.63L35.10 4.96C35.46 4.52 36.30 4.24 37.04 4.24C37.94 4.24 38.39 4.55 38.39 5.95L38.39 9.66L37.31 10.08L37.31 10.50L40.63 10.50L40.77 9.87L39.65 9.63ZM45.16-0.10C43.97-0.10 42.70 0.57 42.70 2.44L42.69 3.47L41.47 3.47L41.47 4.24L42.69 4.24L42.69 9.66L41.47 10.08L41.47 10.50L45.36 10.50L45.50 9.83L43.95 9.63L43.95 4.24L45.81 4.24L45.81 3.47L43.95 3.47L43.95 2.45C43.95 1.09 44.32 0.67 45.16 0.67C45.39 0.67 45.68 0.73 45.91 0.84L46.30 2.38L47.00 2.24L47.00 0.38C46.45 0.06 45.71-0.10 45.16-0.10ZM50.34 9.84C48.59 9.84 48.05 8.27 48.05 6.73C48.05 5.28 48.65 3.85 50.15 3.85C51.90 3.85 52.44 5.42 52.44 6.96C52.44 8.41 51.84 9.84 50.34 9.84ZM50.13 3.08C47.89 3.08 46.65 5.00 46.65 6.89C46.65 8.76 47.84 10.61 50.36 10.61C52.60 10.61 53.84 8.69 53.84 6.80C53.84 4.93 52.65 3.08 50.13 3.08ZM55.38 9.73C55.61 10.16 55.94 10.50 56.38 10.72C56.81 10.49 57.16 10.14 57.41 9.70C57.18 9.27 56.85 8.95 56.42 8.71C55.97 8.95 55.62 9.30 55.38 9.73ZM61.22 3.12L58.76 3.46L58.83 4.07L59.96 4.30L59.96 12.81L58.74 13.23L58.74 13.65L62.43 13.65L62.57 12.98L61.22 12.78L61.22 10.16C61.82 10.40 62.40 10.53 62.94 10.53C64.97 10.53 66.29 8.82 66.29 6.64C66.29 4.52 65.02 3.09 63.43 3.09C62.72 3.09 61.95 3.37 61.22 4.03ZM61.22 4.84C61.89 4.35 62.51 4.16 63.03 4.16C64.20 4.16 64.90 5.21 64.90 6.87C64.90 8.44 64.19 9.76 62.93 9.76C62.44 9.76 61.88 9.56 61.22 9.11ZM69.76 0L67.30 0.34L67.37 0.91L68.50 1.12L68.50 9.66L67.27 10.08L67.27 10.50L70.81 10.50L70.95 9.83L69.76 9.63Z"></path></g><defs data-v-423bf9ae=""><linearGradient data-v-423bf9ae="" gradientTransform="rotate(25)" id="b07473d7-4c37-47de-9159-b69b398c8aea" x1="0%" y1="0%" x2="100%" y2="0%"><stop data-v-423bf9ae="" offset="0%" style="stop-color: rgb(22, 41, 202); stop-opacity: 1;"></stop><stop data-v-423bf9ae="" offset="100%" style="stop-color: rgb(66, 93, 143); stop-opacity: 1;"></stop></linearGradient></defs><g data-v-423bf9ae="" id="b1bc0733-68a3-4e48-b947-378cf69b3aad" transform="matrix(1.685393214225769,0,0,1.685393214225769,99.86741638183594,-8.632583618164062)" stroke="none" fill="url(#b07473d7-4c37-47de-9159-b69b398c8aea)"><circle cx="31.6" cy="10.3" r="5"></circle><circle cx="46" cy="31.9" r="5"></circle><circle cx="17.6" cy="31.9" r="5"></circle><circle cx="5.8" cy="53.7" r="5"></circle><path d="M28.4 53.5c0-1.9.8-3.6 2.2-4.8-.4-.1-.9-.2-1.3-.2-2.8 0-5 2.2-5 5s2.2 5 5 5c.5 0 .9-.1 1.3-.2-1.3-1.1-2.2-2.8-2.2-4.8z"></path><circle cx="58.2" cy="53.5" r="5"></circle><circle cx="34.8" cy="53.5" r="5"></circle><path d="M21.3 26.5c.3.2.6.3.8.3.4 0 .9-.2 1.1-.6l5.7-7.7c.5-.6.3-1.5-.3-2s-1.5-.3-2 .3L21 24.5c-.5.7-.3 1.5.3 2zM34.6 16.5c-.6.5-.8 1.4-.3 2l5.7 7.7c.3.4.7.6 1.1.6.3 0 .6-.1.8-.3.6-.5.8-1.4.3-2l-5.7-7.7c-.4-.6-1.3-.8-1.9-.3zM54.4 48.5c.6-.5.8-1.4.3-2L49 38.8c-.5-.6-1.4-.8-2-.3-.2.2-.4.4-.5.7-.1-.3-.3-.5-.5-.7-.6-.5-1.5-.3-2 .3l-5.7 7.7c-.5.6-.3 1.5.3 2 .3.2.6.3.8.3.4 0 .9-.2 1.1-.6l5.7-7.7c.1-.1.2-.3.2-.4 0 .1.1.3.2.4l5.7 7.7c.3.4.7.6 1.1.6.5 0 .8-.1 1-.3zM25.5 48.5c.6-.5.8-1.4.3-2l-5.7-7.7c-.5-.6-1.4-.8-2-.3-.2.2-.4.4-.5.7-.1-.3-.3-.5-.5-.7-.6-.5-1.5-.3-2 .3l-5.7 7.7c-.5.6-.3 1.5.3 2 .3.2.6.3.8.3.4 0 .9-.2 1.1-.6l5.7-7.7c.1-.1.2-.3.2-.4 0 .1.1.3.2.4l5.7 7.7c.3.4.7.6 1.1.6.5 0 .8-.1 1-.3z"></path></g><!----></svg>